<svg width="96" height="94" viewBox="0 0 96 94" fill="none" xmlns="http://www.w3.org/2000/svg">
<path d="M58.1101 40.025C58.1275 40.1083 58.1736 40.1829 58.2402 40.2358C58.3069 40.2888 58.3899 40.3168 58.4751 40.3149C58.5313 40.3157 58.5869 40.3036 58.6378 40.2796C58.6887 40.2556 58.7334 40.2204 58.7686 40.1765C58.8038 40.1326 58.8285 40.0813 58.8409 40.0265C58.8533 39.9716 58.853 39.9147 58.8401 39.8599C57.7451 34.9299 57.2801 33.3949 57.1651 31.7599C57.1625 31.7104 57.1501 31.6619 57.1285 31.6173C57.1069 31.5727 57.0765 31.5329 57.0392 31.5002C57.0019 31.4676 56.9584 31.4428 56.9113 31.4273C56.8642 31.4118 56.8145 31.4059 56.7651 31.4099C56.716 31.4131 56.668 31.426 56.624 31.4479C56.5799 31.4698 56.5407 31.5003 56.5086 31.5375C56.4765 31.5748 56.4521 31.618 56.4369 31.6648C56.4217 31.7116 56.416 31.7609 56.4201 31.81C56.5351 33.5 57.0001 34.965 58.1101 40.025ZM54.6001 40.3849C54.5805 40.4333 54.5712 40.4853 54.5728 40.5375C54.5745 40.5897 54.587 40.6409 54.6096 40.688C54.6322 40.7351 54.6643 40.7769 54.704 40.8108C54.7437 40.8447 54.79 40.87 54.8401 40.8849C55.1818 40.9988 55.5398 41.0563 55.9001 41.0549C55.9995 41.0549 56.0949 41.0154 56.1652 40.9451C56.2355 40.8748 56.2751 40.7794 56.2751 40.6799C56.2751 40.5805 56.2355 40.4851 56.1652 40.4148C56.0949 40.3445 55.9995 40.3049 55.9001 40.3049C55.6195 40.3053 55.3408 40.2597 55.0751 40.1699C54.9833 40.1397 54.8836 40.145 54.7956 40.1848C54.7076 40.2246 54.6378 40.2961 54.6001 40.3849ZM52.6901 35.88C52.7506 35.881 52.8105 35.8674 52.8646 35.8402C52.9187 35.8131 52.9655 35.7733 53.0008 35.7241C53.0362 35.675 53.0592 35.618 53.0677 35.5581C53.0763 35.4981 53.0702 35.437 53.0501 35.3799C52.9027 34.9097 52.8384 34.4173 52.8601 33.9249C52.8624 33.8757 52.8549 33.8265 52.8382 33.7801C52.8215 33.7337 52.7958 33.6911 52.7626 33.6547C52.7294 33.6182 52.6893 33.5887 52.6447 33.5677C52.6001 33.5467 52.5518 33.5347 52.5026 33.5324C52.4533 33.5302 52.4041 33.5376 52.3577 33.5543C52.3113 33.571 52.2687 33.5967 52.2323 33.6299C52.1958 33.6631 52.1663 33.7032 52.1453 33.7478C52.1243 33.7924 52.1124 33.8407 52.1101 33.8899C52.0833 34.4668 52.1577 35.0438 52.3301 35.595C52.3492 35.6761 52.3952 35.7483 52.4605 35.8C52.5258 35.8518 52.6067 35.8799 52.6901 35.88Z" fill="#262338"/>
<path d="M87 20.2848C77.825 18.4298 76.065 13.5548 74.075 9.24976C67.68 -4.69524 53.68 4.57976 53.68 4.57976C51.2125 3.05292 48.5455 1.87507 45.755 1.07976C42.7084 0.185314 39.4465 0.369982 36.5204 1.60256C33.5943 2.83515 31.1833 5.04007 29.695 7.84476C26.625 13.9998 27.375 16.5398 14.755 19.9998C10.18 21.2448 6.29999 27.4498 8.20499 34.9998C8.35999 37.4998 8.96499 42.3198 11.33 46.1398C12.1779 47.5027 12.5195 49.1204 12.295 50.7098C10.89 50.5998 10.26 50.4548 10.44 50.9198C11.225 52.8898 11.49 53.1798 11.44 53.2598C8.15999 59.3548 -2.59501 56.7298 1.34499 71.6448C1.72688 72.9968 2.30828 74.2843 3.06999 75.4648C2.62999 75.8498 2.19499 76.2548 1.76999 76.6748C1.73066 76.7256 1.70932 76.788 1.70932 76.8523C1.70932 76.9165 1.73066 76.979 1.76999 77.0298C5.46499 81.9698 10.93 84.3748 14.96 85.5298C29.555 93.5298 53.58 97.4448 67 87.7848C71.635 84.4298 73.875 80.6698 74.265 75.5898C74.3287 74.8023 74.5354 74.0331 74.875 73.3198C75.368 73.2803 75.8495 73.1498 76.295 72.9348C77.5701 71.7893 78.4621 70.2794 78.85 68.6098C79.2 68.6098 80.405 67.0598 85.935 64.1998C90.34 61.8948 93.02 58.8448 93.905 55.1398C95.215 49.6648 91.66 43.0348 91.055 42.8098C93 40.7248 94.355 38.0898 95.175 34.6848C96.895 27.8048 91.665 21.2298 87 20.2848ZM78.205 30.6848C79.3258 30.6838 80.4218 31.0153 81.3542 31.6374C82.2865 32.2595 83.0134 33.1442 83.4428 34.1796C83.8722 35.2149 83.9848 36.3544 83.7664 37.4537C83.5479 38.5531 83.0083 39.563 82.2157 40.3555C81.4232 41.1481 80.4133 41.6877 79.3139 41.9062C78.2146 42.1246 77.0751 42.012 76.0398 41.5826C75.0044 41.1532 74.1197 40.4263 73.4976 39.4939C72.8755 38.5616 72.544 37.4656 72.545 36.3448C72.5476 34.8445 73.1448 33.4063 74.2057 32.3455C75.2666 31.2846 76.7047 30.6874 78.205 30.6848ZM75.605 30.7598C74.2435 31.3978 73.1598 32.5082 72.555 33.8848C72.195 33.1898 72.29 32.2848 72.265 31.5298C72.265 31.1698 71.605 31.3498 71.53 31.6048C71.245 32.5498 70.765 34.2548 69.845 34.8198C69.055 35.3198 69.03 34.0248 69.08 33.5148C69.1842 32.9204 69.3296 32.334 69.515 31.7598C69.59 31.4798 68.85 31.5798 68.775 31.8598C68.365 33.3898 68.275 34.5198 67.775 34.3598C67.275 34.1998 67.5 33.4148 67.595 32.1898C67.855 28.9498 73.53 28.4998 75.605 30.7598ZM67.27 34.7598C67.4502 34.8359 67.6473 34.863 67.8413 34.8384C68.0354 34.8138 68.2195 34.7384 68.375 34.6198C68.535 35.2148 68.965 35.6748 69.615 35.4998C70.55 35.2398 71.16 34.3598 71.615 33.3998C71.675 33.7748 71.93 34.5798 72.325 34.5648C71.9749 35.7305 71.9781 36.9738 72.334 38.1378C72.69 39.3018 73.3828 40.3342 74.325 41.1048C70.195 39.9048 69.77 39.7898 69.69 39.7548C68.855 39.4148 68.41 37.9998 68.19 37.1898C68.06 36.7348 67.645 36.2448 67.19 36.3198C66.475 36.3198 66.12 38.0048 66.03 38.7048L61.325 37.3448C60.48 37.1748 60.125 35.6498 60.17 34.8798C60.1834 34.4644 60.326 34.0635 60.5778 33.7328C60.8296 33.4022 61.1781 33.1582 61.575 33.0348C61.74 32.9698 61.075 33.0698 66.83 32.2848C66.91 33.7498 66.53 34.4698 67.27 34.7648V34.7598ZM71.795 42.4998L73.1 48.1798C72.2061 48.6289 71.2424 48.9231 70.25 49.0498C68.965 43.0148 69.125 43.5498 68.9 43.2648C68.675 42.9798 65.235 41.6798 66.9 37.2648C66.975 37.0998 67.075 36.8748 67.225 36.8448C67.675 36.7248 67.725 37.9898 68.005 38.3998C68.2889 39.1108 68.7671 39.7277 69.385 40.1798C69.45 40.2348 69.13 40.1298 73.385 41.3698C72.63 42.4098 72.15 42.2198 72.15 42.2198C72.1076 42.1987 72.06 42.19 72.0129 42.1949C71.9658 42.1998 71.921 42.2179 71.8838 42.2473C71.8466 42.2766 71.8185 42.3159 71.8027 42.3606C71.787 42.4053 71.7843 42.4536 71.795 42.4998ZM58.5 55.5698C58.1646 55.3857 57.7875 55.291 57.405 55.2948C57.3688 55.2868 57.3312 55.2868 57.295 55.2948C57.295 54.2498 57.26 52.6198 57.13 51.7948C61.51 51.3348 64.665 48.2948 65.755 46.7948C66.53 47.1548 67.29 47.4648 68.035 47.7348C67.24 48.3498 67.29 49.0298 68.105 49.5448C68.5375 54.0317 69.2421 58.4883 70.215 62.8898C65.25 58.3648 60.77 58.3898 59.425 57.9798C59.3767 57.884 59.3626 57.7746 59.385 57.6698C59.445 57.1898 59.39 55.8248 58.5 55.5698ZM58.145 55.9798C57.8998 56.1374 57.6164 56.2256 57.325 56.2348V55.7748C57.3581 55.7799 57.3918 55.7799 57.425 55.7748C57.675 55.7948 58.09 55.8798 58.145 55.9998V55.9798ZM68.645 47.9798C68.96 48.0898 69.275 48.1848 69.59 48.2798C69.6221 48.558 69.6807 48.8326 69.765 49.0998C69.3132 49.1474 68.8592 49.1707 68.405 49.1698C67.82 48.8248 67.77 48.4998 68.625 47.9998L68.645 47.9798ZM55.67 22.4548C58.04 20.8748 61.405 21.4848 63.37 23.3448C65.685 25.5448 66.99 31.5198 66.915 31.7698C61 32.5798 61.61 32.4998 61.365 32.5748C60.8816 32.7354 60.4589 33.0398 60.1533 33.4472C59.8477 33.8547 59.6738 34.3458 59.655 34.8548C59.6 35.7448 60.01 37.6048 61.185 37.8548L65.965 39.2398C65.8825 40.4184 66.2668 41.5821 67.035 42.4798C66.5939 43.9253 65.9183 45.2884 65.035 46.5148L65.295 46.6398C64.485 47.6398 61.515 50.9348 56.97 51.3548C56.9254 51.3186 56.8698 51.2989 56.8125 51.2989C56.7551 51.2989 56.6995 51.3186 56.655 51.3548C53.115 51.5748 48.865 50.8148 46.06 48.2648C43.5 45.9598 43.11 45.2998 39.66 33.2348C39.66 32.8548 40.195 32.8298 40.555 32.9048C43 33.4448 46.86 33.6298 49 32.5998C52.145 31.0998 52.805 27.1398 53.69 25.0548C54.1019 24.0245 54.7863 23.1257 55.67 22.4548ZM56.825 56.2848C55.4438 56.3524 54.0595 56.3106 52.685 56.1598V51.6898C53.9926 51.879 55.3159 51.936 56.635 51.8598C56.79 52.8348 56.765 55.2848 56.825 56.2848ZM36.785 31.7848C38.94 29.6898 42.11 30.7848 44.445 30.5198C45.3909 30.3992 46.2988 30.072 47.1041 29.5613C47.9094 29.0506 48.5926 28.369 49.105 27.5648C49.5044 26.779 49.989 26.0396 50.55 25.3598C50.6441 25.2656 50.7718 25.2127 50.905 25.2127C50.9709 25.2127 51.0362 25.2257 51.0971 25.2509C51.158 25.2762 51.2134 25.3131 51.26 25.3598C51.3066 25.4064 51.3436 25.4617 51.3688 25.5226C51.394 25.5835 51.407 25.6488 51.407 25.7148C51.407 25.7807 51.394 25.846 51.3688 25.9069C51.3436 25.9678 51.3066 26.0231 51.26 26.0698C50.7575 26.7034 50.3187 27.385 49.95 28.1048C49.3584 29.0339 48.5682 29.8203 47.6361 30.4074C46.7041 30.9944 45.6535 31.3675 44.56 31.4998C42.12 31.7998 39.265 30.7548 37.485 32.4998C36.9 33.0848 35.81 35.2148 35.245 36.2848C34.9379 36.1488 34.6405 35.9917 34.355 35.8148C35.04 34.4998 36.085 32.4598 36.785 31.7598V31.7848ZM8.92499 37.1998C11.425 43.4948 15.585 47.4248 22.735 49.1998C37.235 52.8098 41.94 47.6198 43.14 45.6998C43.8656 46.784 44.7315 47.7675 45.715 48.6248C47.5461 50.2088 49.7901 51.2389 52.185 51.5948V54.5948C51.7277 54.5974 51.2749 54.6856 50.85 54.8548C49.85 55.0798 49.815 56.8898 50.1 57.8548C50.1762 58.0609 50.2102 58.2802 50.2 58.4998C49.64 58.6148 48.96 58.7448 48.4 58.8648C47.0458 58.9944 45.7652 59.5412 44.735 60.4298C34.05 50.9998 24.825 51.6048 12.795 50.7198C13.0268 49.0248 12.659 47.3021 11.755 45.8498C10.035 43.0698 9.26499 39.7298 8.92499 37.1998ZM50.955 55.4048C50.955 55.4048 51.075 55.1798 52.185 55.1148V56.0698C51.8443 55.9984 51.5099 55.8997 51.185 55.7748C51.07 55.7198 51.025 55.6748 51.02 55.6898C51.0314 55.6404 51.0315 55.5892 51.0202 55.5398C51.009 55.4904 50.9867 55.4443 50.955 55.4048ZM1.83999 71.4998C-1.89501 57.3748 7.88999 59.7948 11.725 53.7598C14.78 59.7998 19.49 64.8098 24.725 68.7598C16.465 68.0098 9.32499 70.1498 3.46999 75.1348C2.7491 74.0108 2.19973 72.7857 1.83999 71.4998ZM17.065 86.0498C20.2511 86.7229 23.4941 87.0912 26.75 87.1498C30.34 87.1498 35.49 86.4398 39.48 84.7598C39.5103 84.7467 39.5377 84.7278 39.5606 84.7041C39.5835 84.6805 39.6016 84.6525 39.6136 84.6218C39.6257 84.5911 39.6316 84.5584 39.631 84.5254C39.6304 84.4925 39.6232 84.46 39.61 84.4298C39.5836 84.3699 39.5348 84.3227 39.474 84.2984C39.4133 84.2741 39.3454 84.2746 39.285 84.2998C34.93 86.1348 29.165 86.7998 25.65 86.6248C16.75 86.1698 7.69499 83.9498 2.27999 76.8648C2.66499 76.4898 3.05499 76.1298 3.44999 75.7798C3.50501 75.7764 3.55739 75.755 3.59899 75.7189C3.64059 75.6827 3.66906 75.6338 3.67999 75.5798C9.64999 70.4498 17 68.3448 25.5 69.3148C30.038 72.5945 35.024 75.2045 40.305 77.0648C40.3368 77.08 40.3716 77.0884 40.4069 77.0892C40.4422 77.0901 40.4773 77.0835 40.5099 77.0698C40.5424 77.0561 40.5717 77.0356 40.5958 77.0098C40.6199 76.9839 40.6383 76.9533 40.6497 76.9199C40.661 76.8864 40.6652 76.8509 40.6619 76.8158C40.6586 76.7806 40.6478 76.7465 40.6304 76.7158C40.6129 76.6851 40.5892 76.6584 40.5606 76.6376C40.5321 76.6167 40.4995 76.6021 40.465 76.5948C28.405 72.3898 16.08 63.2598 11.085 51.1848C17.17 54.0748 23.005 56.9348 29.085 59.8548L24.275 61.0898C24.2087 61.1063 24.1517 61.1486 24.1165 61.2072C24.0814 61.2658 24.0709 61.336 24.0875 61.4023C24.1041 61.4686 24.1463 61.5256 24.2049 61.5607C24.2635 61.5959 24.3337 61.6063 24.4 61.5898L29.785 60.2048C30.32 60.4598 32.745 61.6098 34.01 62.2448L30.945 63.5648C30.8851 63.5911 30.8379 63.6399 30.8136 63.7007C30.7893 63.7615 30.7898 63.8294 30.815 63.8898C30.8414 63.9509 30.8908 63.9993 30.9525 64.0245C31.0141 64.0498 31.0832 64.0498 31.145 64.0248C34.74 62.4598 34.5 62.5898 34.56 62.5248C36.525 63.5248 38.395 64.5498 40.19 65.6948C40.2456 65.7265 40.3112 65.7357 40.3734 65.7204C40.4356 65.7052 40.4895 65.6666 40.5242 65.6128C40.5588 65.559 40.5714 65.4939 40.5595 65.431C40.5475 65.3681 40.5119 65.3122 40.46 65.2748C37.7752 63.6077 34.9917 62.1049 32.125 60.7748L31.83 55.3298C31.828 55.2969 31.8196 55.2648 31.8052 55.2352C31.7908 55.2057 31.7708 55.1792 31.7462 55.1574C31.7215 55.1356 31.6929 55.1188 31.6618 55.1081C31.6307 55.0973 31.5978 55.0928 31.565 55.0948C31.5322 55.0967 31.5 55.1051 31.4705 55.1195C31.4409 55.1339 31.4144 55.154 31.3926 55.1786C31.3708 55.2032 31.354 55.2319 31.3433 55.263C31.3325 55.294 31.328 55.3269 31.33 55.3598L31.635 60.4998C30.395 59.9098 20.095 54.9148 12.26 51.1848C24.155 52.1048 33.6 51.2898 44.385 60.8198C43.8687 61.4109 43.4866 62.1069 43.265 62.8598C42.31 66.7898 38.865 84.3598 40.85 87.2498C40.765 88.1948 40.925 88.8548 41.85 89.3598C42.3497 89.6467 42.8818 89.8733 43.435 90.0348C42.8341 90.8752 42.3981 91.8219 42.15 92.8248C33.4318 92.1928 24.9159 89.8928 17.065 86.0498ZM41.33 87.7148C41.48 87.8148 44.86 89.7148 47.24 88.9798C47.2069 89.1376 47.1378 89.2856 47.0381 89.4122C46.9383 89.5388 46.8106 89.6407 46.665 89.7098C45.59 90.2098 43.27 89.5998 42.1 88.9248C41.8621 88.8277 41.6602 88.6591 41.5223 88.4424C41.3844 88.2256 41.3172 87.9714 41.33 87.7148ZM42.66 92.8548C42.9244 91.8874 43.3651 90.9772 43.96 90.1698C44.3958 90.2705 44.8388 90.3374 45.285 90.3698C45.6171 91.2072 45.8682 92.0745 46.035 92.9598C44.92 92.9598 43.79 92.9248 42.66 92.8548ZM73.75 75.5348C73.38 80.3848 71.37 83.8648 67.055 87.0898C66.525 78.8798 66.325 76.1348 65.45 69.0898C67.845 71.2298 71.105 73.3948 74.3 73.3498C73.9936 74.0415 73.8076 74.7804 73.75 75.5348ZM75.975 72.5348C75.645 72.6848 71.72 74.2498 65.355 68.3298C65.29 67.8048 65.22 67.2498 65.15 66.6748C65.142 66.6085 65.1081 66.548 65.0555 66.5068C65.003 66.4655 64.9363 66.4468 64.87 66.4548C64.8037 66.4627 64.7433 66.4967 64.702 66.5492C64.6607 66.6017 64.642 66.6685 64.65 66.7348C65.8 75.8098 65.975 78.1848 66.58 87.4598C61.895 90.7898 55.81 92.4598 49.235 92.8848C48.52 88.1198 48.27 87.2598 48.15 78.1748C48.04 69.9948 48.03 70.5948 47.195 66.5798C47.1884 66.5469 47.1755 66.5157 47.1568 66.4879C47.1382 66.4601 47.1143 66.4362 47.0864 66.4176C47.0585 66.3991 47.0273 66.3862 46.9945 66.3797C46.9616 66.3732 46.9278 66.3732 46.895 66.3798C46.8622 66.3863 46.8309 66.3993 46.8031 66.4179C46.7753 66.4366 46.7514 66.4605 46.7329 66.4883C46.7143 66.5162 46.7014 66.5474 46.6949 66.5803C46.6884 66.6131 46.6884 66.6469 46.695 66.6798C47.545 70.7598 47.535 70.3798 47.635 78.1798C47.76 87.2698 48.01 88.1798 48.72 92.9048C47.995 92.9448 47.265 92.9648 46.535 92.9698C46.3811 92.0929 46.1399 91.2336 45.815 90.4048C46.1787 90.4016 46.5379 90.3233 46.87 90.1748C47.975 89.6748 47.9 88.2048 47.37 88.4148C45.17 89.2748 41.69 87.4498 41.37 87.1048C40.14 79.9048 42.26 69.1548 43.76 62.9948C44.365 61.1448 45.705 59.8798 48.26 59.4498C48.565 59.3998 50.07 59.0898 50.445 59.0098C50.63 58.9548 50.895 58.7198 50.615 57.7548C50.4475 57.1325 50.4475 56.477 50.615 55.8548C50.6585 55.9473 50.7204 56.03 50.7969 56.0979C50.8734 56.1659 50.9629 56.2175 51.06 56.2498C52.445 56.8098 54.025 56.8148 55.56 56.8298C56.355 56.8298 58.295 56.8698 58.65 56.2248C58.9082 56.6614 59.0137 57.1715 58.95 57.6748C58.89 58.2098 59.125 58.4098 59.24 58.4748C59.935 58.9748 65.04 58.5098 70.5 63.8498C70.7768 64.9792 71.1106 66.094 71.5 67.1898C71.5107 67.2211 71.5274 67.2499 71.5493 67.2747C71.5713 67.2995 71.5979 67.3197 71.6276 67.3341C71.6574 67.3485 71.6897 67.3568 71.7227 67.3587C71.7558 67.3605 71.7888 67.3558 71.82 67.3448C71.8827 67.3211 71.9335 67.2738 71.9616 67.213C71.9897 67.1522 71.9927 67.0828 71.97 67.0198C69.865 61.2098 68.84 51.4348 68.67 49.6898C70.0365 49.7003 71.3929 49.4561 72.67 48.9698C73.4141 49.0807 74.1634 49.1542 74.915 49.1898C77.645 55.8048 81.415 67.7448 76 72.4998L75.975 72.5348ZM80.325 66.9348C79.86 67.2548 79.415 67.5798 78.995 67.9048C80.245 61.5948 76.995 52.9048 75.445 49.2098C77.0879 49.2298 78.727 49.0468 80.325 48.6648V66.9348ZM80.825 66.5948V48.5348C80.825 48.4548 81.48 48.4398 83.91 47.4498L84.675 64.2648C83.2683 65.0281 81.9867 65.7981 80.83 66.5748L80.825 66.5948ZM93.405 54.9998C92.55 58.5598 89.955 61.4998 85.69 63.7298L85.19 63.9998C84.8 55.4148 84.825 56.6148 84.92 56.6948C84.9448 56.7166 84.9738 56.7334 85.0052 56.7439C85.0365 56.7545 85.0697 56.7588 85.1027 56.7565C85.1357 56.7541 85.168 56.7453 85.1975 56.7304C85.2271 56.7155 85.2534 56.6949 85.275 56.6698C85.43 56.4898 84.625 56.9698 92.84 48.1698C92.8626 48.1458 92.8803 48.1176 92.8921 48.0868C92.9039 48.056 92.9094 48.0232 92.9085 47.9902C92.9076 47.9572 92.9002 47.9248 92.8867 47.8947C92.8732 47.8646 92.854 47.8374 92.83 47.8148C92.806 47.7921 92.7778 47.7744 92.747 47.7626C92.7162 47.7509 92.6834 47.7453 92.6504 47.7462C92.6174 47.7472 92.585 47.7546 92.5549 47.7681C92.5248 47.7815 92.4976 47.8008 92.475 47.8248C85.825 54.9548 84.975 56.1598 84.845 56.4348L84.765 54.6648C85.055 54.7398 84.675 54.9198 92.265 46.3248C92.2883 46.302 92.3068 46.2747 92.3194 46.2447C92.332 46.2146 92.3385 46.1824 92.3385 46.1498C92.3385 46.1172 92.332 46.0849 92.3194 46.0549C92.3068 46.0248 92.2883 45.9976 92.265 45.9748C92.2174 45.9286 92.1537 45.9028 92.0875 45.9028C92.0212 45.9028 91.9576 45.9286 91.91 45.9748L84.77 54.1248L84.455 47.2248C86.8091 46.2747 88.9557 44.8753 90.775 43.1048C90.75 43.1898 94.845 48.9998 93.405 54.9998Z" fill="#262338"/>
<path d="M59.1899 30.81C59.2419 30.8093 59.2932 30.7979 59.3405 30.7764C59.3879 30.7549 59.4302 30.7237 59.4649 30.685C59.9249 30.185 60.3749 29.645 60.9099 28.955C60.9443 28.9167 60.9705 28.8718 60.9868 28.8229C61.0031 28.7741 61.0092 28.7225 61.0047 28.6712C61.0002 28.6199 60.9852 28.5701 60.9606 28.5249C60.936 28.4797 60.9023 28.44 60.8617 28.4084C60.8211 28.3767 60.7744 28.3538 60.7246 28.3409C60.6747 28.3281 60.6228 28.3257 60.572 28.3338C60.5211 28.3419 60.4725 28.3604 60.4291 28.3882C60.3858 28.4159 60.3486 28.4522 60.3199 28.495C59.8199 29.165 59.3599 29.685 58.9099 30.18C58.8622 30.2345 58.8311 30.3016 58.8203 30.3732C58.8095 30.4449 58.8193 30.5181 58.8488 30.5843C58.8782 30.6506 58.9259 30.707 58.9864 30.747C59.0468 30.7869 59.1174 30.8088 59.1899 30.81ZM49.6449 43.5C49.5464 43.5171 49.4586 43.5724 49.4006 43.6538C49.3425 43.7352 49.3189 43.8363 49.3349 43.935C49.4787 44.7486 49.8359 45.5095 50.3699 46.14C51.2049 46.905 52.4599 46.415 52.1199 45.845C52.0675 45.7651 51.987 45.7079 51.8943 45.6847C51.8017 45.6616 51.7037 45.6742 51.6199 45.72C51.4996 45.7736 51.3658 45.7893 51.2364 45.7652C51.1069 45.7411 50.9878 45.6783 50.8949 45.585C50.4894 45.0662 50.215 44.4573 50.0949 43.81C50.0872 43.7594 50.0692 43.7109 50.042 43.6675C50.0148 43.6241 49.9791 43.5867 49.9369 43.5577C49.8947 43.5286 49.8471 43.5085 49.7969 43.4986C49.7466 43.4887 49.6949 43.4891 49.6449 43.5ZM32.9199 75.715C31.9549 75.86 31.0399 75.99 30.1649 76.105L25.4449 73.7C25.3852 73.6701 25.3161 73.6652 25.2528 73.6863C25.1895 73.7074 25.1372 73.7528 25.1074 73.8125C25.0775 73.8721 25.0726 73.9412 25.0937 74.0045C25.1148 74.0678 25.1602 74.1201 25.2199 74.15L29.2849 76.22C27.6049 76.44 26.0649 76.615 24.5949 76.78C24.5399 76.665 24.7249 76.78 21.7499 75.28C21.6902 75.2501 21.6211 75.2452 21.5578 75.2663C21.4945 75.2874 21.4422 75.3328 21.4124 75.3925C21.3825 75.4521 21.3776 75.5212 21.3987 75.5845C21.4198 75.6478 21.4652 75.7001 21.5249 75.73L23.7799 76.865C22.4399 77.01 21.2449 77.135 20.0099 77.275C19.9549 77.145 20.3249 77.355 14.8149 74.565C14.7556 74.5366 14.6877 74.5322 14.6253 74.5527C14.5629 74.5732 14.5108 74.617 14.4799 74.675C14.4644 74.7044 14.455 74.7367 14.4522 74.7699C14.4493 74.803 14.4531 74.8364 14.4634 74.8681C14.4736 74.8998 14.4901 74.9291 14.5118 74.9543C14.5335 74.9795 14.5601 75.0001 14.5899 75.015L19.2149 77.36C17.2449 77.585 15.2599 77.86 13.0799 78.19C13.047 78.1952 13.0156 78.2069 12.9873 78.2243C12.9589 78.2417 12.9343 78.2645 12.9148 78.2915C12.8953 78.3184 12.8813 78.3489 12.8736 78.3813C12.8659 78.4136 12.8646 78.4471 12.8699 78.48C12.8751 78.5128 12.8868 78.5443 12.9042 78.5726C12.9216 78.6009 12.9445 78.6255 12.9714 78.645C12.9983 78.6645 13.0288 78.6785 13.0612 78.6862C13.0935 78.694 13.127 78.6952 13.1599 78.69C18.0699 77.9 22.0449 77.6 27.1099 77L23.3499 81.96C23.3294 81.9864 23.3144 82.0166 23.3058 82.0489C23.2972 82.0812 23.2952 82.1149 23.2999 82.148C23.3045 82.1811 23.3158 82.213 23.333 82.2416C23.3501 82.2703 23.3729 82.2952 23.3999 82.315C23.4534 82.3535 23.5197 82.3698 23.585 82.3605C23.6502 82.3511 23.7093 82.3169 23.7499 82.265C28.0399 76.6 27.7499 76.975 27.7849 76.92C31.8599 76.42 32.1699 76.34 32.9949 76.215C33.0274 76.2101 33.0586 76.1988 33.0868 76.1819C33.115 76.1649 33.1395 76.1425 33.159 76.116C33.1785 76.0896 33.1926 76.0595 33.2005 76.0276C33.2084 75.9956 33.2099 75.9625 33.2049 75.93C33.195 75.864 33.1596 75.8045 33.1063 75.7643C33.053 75.7241 32.9861 75.7064 32.9199 75.715ZM78.2049 41.44C79.2128 41.441 80.1983 41.143 81.0369 40.5837C81.8754 40.0245 82.5292 39.2291 82.9156 38.2982C83.302 37.3673 83.4036 36.3427 83.2076 35.3541C83.0116 34.3654 82.5267 33.4571 81.8144 32.744C81.102 32.031 80.1942 31.5452 79.2057 31.3482C78.2172 31.1512 77.1925 31.2518 76.2613 31.6373C75.33 32.0228 74.534 32.6758 73.9739 33.5138C73.4138 34.3518 73.1149 35.3371 73.1149 36.345C73.1162 37.695 73.6527 38.9894 74.6069 39.9445C75.561 40.8995 76.8549 41.4373 78.2049 41.44ZM78.2049 31.755C79.1141 31.754 80.0032 32.0228 80.7596 32.5273C81.516 33.0318 82.1057 33.7494 82.4541 34.5892C82.8026 35.4291 82.894 36.3534 82.7168 37.2452C82.5397 38.137 82.102 38.9562 81.459 39.5991C80.8161 40.242 79.9969 40.6798 79.1051 40.8569C78.2133 41.0341 77.289 40.9426 76.4491 40.5942C75.6093 40.2458 74.8917 39.6561 74.3872 38.8997C73.8827 38.1433 73.6139 37.2542 73.6149 36.345C73.6162 35.128 74.1002 33.9613 74.9607 33.1008C75.8212 32.2403 76.9879 31.7563 78.2049 31.755Z" fill="#262338"/>
<path d="M76.0901 35.9596C76.2351 35.9596 76.0901 36.0546 78.3851 33.7946C78.4321 33.7475 78.4586 33.6837 78.4586 33.6171C78.4586 33.5505 78.4321 33.4867 78.3851 33.4396C78.338 33.3925 78.2741 33.3661 78.2076 33.3661C78.141 33.3661 78.0771 33.3925 78.0301 33.4396L75.9151 35.5296C75.8791 35.5643 75.8543 35.609 75.844 35.6578C75.8336 35.7067 75.8382 35.7576 75.857 35.8039C75.8758 35.8501 75.9081 35.8897 75.9496 35.9175C75.9912 35.9452 76.0401 35.9599 76.0901 35.9596ZM76.0901 37.0296C76.2451 37.0296 76.0901 37.1196 78.3851 34.8396C78.4309 34.7929 78.4565 34.7301 78.4565 34.6646C78.4565 34.5992 78.4309 34.5364 78.3851 34.4896C78.3618 34.4662 78.3342 34.4476 78.3037 34.4349C78.2732 34.4222 78.2406 34.4157 78.2076 34.4157C78.1745 34.4157 78.1419 34.4222 78.1114 34.4349C78.081 34.4476 78.0533 34.4662 78.0301 34.4896L75.9151 36.6046C75.8808 36.6396 75.8575 36.6838 75.8482 36.7318C75.8388 36.7799 75.8438 36.8296 75.8624 36.8748C75.881 36.9201 75.9125 36.9589 75.953 36.9864C75.9935 37.0139 76.0411 37.0289 76.0901 37.0296ZM53.1801 29.4146C54.8451 30.8546 54.7651 30.8346 54.9551 30.8346C55.0323 30.8359 55.108 30.8134 55.1719 30.77C55.2358 30.7267 55.2847 30.6647 55.3121 30.5925C55.3394 30.5203 55.3438 30.4414 55.3247 30.3666C55.3055 30.2918 55.2637 30.2248 55.2051 30.1746L53.6751 28.8496C53.6001 28.7833 53.5019 28.7495 53.4021 28.7556C53.3022 28.7617 53.2089 28.8072 53.1426 28.8821C53.0763 28.957 53.0424 29.0552 53.0485 29.1551C53.0546 29.255 53.1001 29.3483 53.1751 29.4146H53.1801ZM44.7851 69.1646C44.7659 69.1915 44.7522 69.2219 44.7448 69.2541C44.7375 69.2863 44.7365 69.3196 44.7421 69.3521C44.7477 69.3847 44.7597 69.4158 44.7773 69.4437C44.795 69.4716 44.818 69.4957 44.8451 69.5146L46.9601 71.0146C47.0144 71.0531 47.0818 71.0684 47.1475 71.0571C47.2131 71.0459 47.2716 71.009 47.3101 70.9546C47.3485 70.9002 47.3638 70.8328 47.3525 70.7672C47.3413 70.7015 47.3044 70.6431 47.2501 70.6046L45.1301 69.1046C45.0762 69.0674 45.0098 69.0529 44.9453 69.0641C44.8808 69.0753 44.8232 69.1114 44.7851 69.1646ZM66.9051 64.9996L65.8101 66.2196C65.779 66.2561 65.7589 66.3006 65.752 66.348C65.7451 66.3954 65.7517 66.4438 65.771 66.4876C65.7903 66.5314 65.8215 66.5689 65.8612 66.5958C65.9008 66.6227 65.9472 66.6379 65.9951 66.6396C66.1551 66.6396 66.1151 66.6396 67.2801 65.3346C67.3245 65.2849 67.3473 65.2196 67.3436 65.153C67.3398 65.0864 67.3098 65.024 67.2601 64.9796C67.2354 64.9576 67.2067 64.9407 67.1756 64.9298C67.1444 64.9189 67.1114 64.9142 67.0784 64.9161C67.0118 64.9198 66.9495 64.9499 66.9051 64.9996ZM90.1751 53.6396L88.9251 53.4596C88.8589 53.451 88.7919 53.4687 88.7387 53.5089C88.6854 53.5491 88.65 53.6086 88.6401 53.6746C88.6315 53.7402 88.6494 53.8066 88.6897 53.8591C88.73 53.9115 88.7895 53.9459 88.8551 53.9546L90.1001 54.1346C90.1657 54.1446 90.2326 54.128 90.2861 54.0886C90.3395 54.0493 90.3751 53.9903 90.3851 53.9246C90.395 53.859 90.3785 53.7921 90.3391 53.7386C90.2997 53.6852 90.2407 53.6496 90.1751 53.6396ZM91.1151 51.8946L89.9151 52.3946C89.8845 52.4071 89.8568 52.4255 89.8333 52.4487C89.8099 52.4719 89.7912 52.4995 89.7785 52.5299C89.7657 52.5603 89.7591 52.5929 89.7589 52.6259C89.7587 52.6589 89.7651 52.6916 89.7776 52.7221C89.79 52.7527 89.8084 52.7804 89.8316 52.8039C89.8548 52.8273 89.8824 52.8459 89.9128 52.8587C89.9432 52.8715 89.9759 52.8781 90.0089 52.8783C90.0418 52.8784 90.0745 52.8721 90.1051 52.8596L91.3001 52.3596C91.3306 52.3475 91.3584 52.3294 91.382 52.3065C91.4056 52.2836 91.4244 52.2563 91.4374 52.2261C91.4504 52.1959 91.4573 52.1635 91.4578 52.1306C91.4582 52.0978 91.4522 52.0652 91.4401 52.0346C91.4279 52.0041 91.4099 51.9762 91.387 51.9527C91.3641 51.9291 91.3367 51.9103 91.3066 51.8973C91.2764 51.8843 91.2439 51.8774 91.2111 51.8769C91.1782 51.8765 91.1456 51.8825 91.1151 51.8946Z" fill="#262338"/>
</svg>
